<?xml version="1.0" standalone="no"?>
<svg xmlns:xlink="http://www.w3.org/1999/xlink" id="wave" style="transform:rotate(0deg); transition: 0.3s" viewBox="0 0 1440 190" version="1.1" xmlns="http://www.w3.org/2000/svg"><defs><linearGradient id="sw-gradient-0" x1="0" x2="0" y1="1" y2="0"><stop stop-color="rgba(195.797, 99.582, 131.654, 0.5)" offset="0%"/><stop stop-color="rgba(143.426, 40.541, 74.836, 0)" offset="100%"/></linearGradient></defs><path style="transform:translate(0, 0px); opacity:1" fill="url(#sw-gradient-0)" d="M0,152L60,155.2C120,158,240,165,360,142.5C480,120,600,70,720,63.3C840,57,960,95,1080,110.8C1200,127,1320,120,1440,110.8C1560,101,1680,89,1800,79.2C1920,70,2040,63,2160,53.8C2280,44,2400,32,2520,25.3C2640,19,2760,19,2880,34.8C3000,51,3120,82,3240,88.7C3360,95,3480,76,3600,63.3C3720,51,3840,44,3960,47.5C4080,51,4200,63,4320,66.5C4440,70,4560,63,4680,63.3C4800,63,4920,70,5040,79.2C5160,89,5280,101,5400,95C5520,89,5640,63,5760,60.2C5880,57,6000,76,6120,98.2C6240,120,6360,146,6480,139.3C6600,133,6720,95,6840,76C6960,57,7080,57,7200,66.5C7320,76,7440,95,7560,101.3C7680,108,7800,101,7920,104.5C8040,108,8160,120,8280,120.3C8400,120,8520,108,8580,101.3L8640,95L8640,190L8580,190C8520,190,8400,190,8280,190C8160,190,8040,190,7920,190C7800,190,7680,190,7560,190C7440,190,7320,190,7200,190C7080,190,6960,190,6840,190C6720,190,6600,190,6480,190C6360,190,6240,190,6120,190C6000,190,5880,190,5760,190C5640,190,5520,190,5400,190C5280,190,5160,190,5040,190C4920,190,4800,190,4680,190C4560,190,4440,190,4320,190C4200,190,4080,190,3960,190C3840,190,3720,190,3600,190C3480,190,3360,190,3240,190C3120,190,3000,190,2880,190C2760,190,2640,190,2520,190C2400,190,2280,190,2160,190C2040,190,1920,190,1800,190C1680,190,1560,190,1440,190C1320,190,1200,190,1080,190C960,190,840,190,720,190C600,190,480,190,360,190C240,190,120,190,60,190L0,190Z"/><defs><linearGradient id="sw-gradient-1" x1="0" x2="0" y1="1" y2="0"><stop stop-color="rgba(255, 255, 255, 1)" offset="100%"/><stop stop-color="rgba(255, 255, 255, 1)" offset="0%"/></linearGradient></defs><path style="transform:translate(0, 50px); opacity:0.9" fill="url(#sw-gradient-1)" d="M0,0L60,0C120,0,240,0,360,15.8C480,32,600,63,720,88.7C840,114,960,133,1080,123.5C1200,114,1320,76,1440,53.8C1560,32,1680,25,1800,38C1920,51,2040,82,2160,91.8C2280,101,2400,89,2520,88.7C2640,89,2760,101,2880,107.7C3000,114,3120,114,3240,104.5C3360,95,3480,76,3600,57C3720,38,3840,19,3960,31.7C4080,44,4200,89,4320,107.7C4440,127,4560,120,4680,114C4800,108,4920,101,5040,82.3C5160,63,5280,32,5400,34.8C5520,38,5640,76,5760,88.7C5880,101,6000,89,6120,69.7C6240,51,6360,25,6480,41.2C6600,57,6720,114,6840,123.5C6960,133,7080,95,7200,66.5C7320,38,7440,19,7560,38C7680,57,7800,114,7920,123.5C8040,133,8160,95,8280,82.3C8400,70,8520,82,8580,88.7L8640,95L8640,190L8580,190C8520,190,8400,190,8280,190C8160,190,8040,190,7920,190C7800,190,7680,190,7560,190C7440,190,7320,190,7200,190C7080,190,6960,190,6840,190C6720,190,6600,190,6480,190C6360,190,6240,190,6120,190C6000,190,5880,190,5760,190C5640,190,5520,190,5400,190C5280,190,5160,190,5040,190C4920,190,4800,190,4680,190C4560,190,4440,190,4320,190C4200,190,4080,190,3960,190C3840,190,3720,190,3600,190C3480,190,3360,190,3240,190C3120,190,3000,190,2880,190C2760,190,2640,190,2520,190C2400,190,2280,190,2160,190C2040,190,1920,190,1800,190C1680,190,1560,190,1440,190C1320,190,1200,190,1080,190C960,190,840,190,720,190C600,190,480,190,360,190C240,190,120,190,60,190L0,190Z"/></svg>